<?xml version="1.0" encoding="utf-8"?>
<!-- Generator: Adobe Illustrator 23.0.5, SVG Export Plug-In . SVG Version: 6.00 Build 0)  -->
<svg version="1.1" id="Слой_1" xmlns="http://www.w3.org/2000/svg" xmlns:xlink="http://www.w3.org/1999/xlink" x="0px" y="0px"
	 viewBox="0 0 48 48" style="enable-background:new 0 0 48 48;" xml:space="preserve">
<style type="text/css">
	.st0{fill-rule:evenodd;clip-rule:evenodd;}
</style>
<path class="st0" d="M0,24C0,10.7,10.7,0,24,0s24,10.7,24,24S37.3,48,24,48S0,37.3,0,24z M17,19.9h-5.4v16.3H17V19.9z M17.3,14.8
	c0-1.6-1.2-2.8-3-2.8c-1.9,0-3.1,1.2-3.1,2.8c0,1.6,1.2,2.8,3,2.8h0C16.1,17.6,17.3,16.4,17.3,14.8z M36.6,26.8c0-5-2.7-7.4-6.3-7.4
	c-2.9,0-4.2,1.6-4.9,2.7v-2.3H20c0.1,1.5,0,16.3,0,16.3h5.4v-9.1c0-0.5,0-1,0.2-1.3c0.4-1,1.3-2,2.8-2c2,0,2.8,1.5,2.8,3.7v8.7h5.4
	L36.6,26.8z"/>
</svg>
